[img]http://img830.imageshack.us/img830/1396/dangerj.jpg[/img]
[code]
A Dangerous Method 2011 CaM XviD - ILLUMINATI


 
http://www.imdb.com/title/tt1571222/

Plot:
A look at how the intense relationship between 
Carl Jung and Sigmund Freud gives birth to 
psychoanalysis.

Sources:
Video - TNZ (720p Files) - Many Thanks Guys  
Audio - EVOLUTiON - Many Thanks Guys (holla)  

Info:

Video
ID                               : 0
Format                           : MPEG-4 Visual
Format profile                   : Advanced Simple@L5
Format settings, BVOP            : 2
Format settings, QPel            : No
Format settings, GMC             : No warppoints
Format settings, Matrix          : Default (H.263)
Codec ID                         : XVID
Codec ID/Hint                    : XviD
Duration                         : 1h 33mn
Bit rate                         : 1 498 Kbps
Width                            : 704 pixels
Height                           : 368 pixels
Display aspect ratio             : 1.913
Frame rate                       : 25.000 fps
Color space                      : YUV
Chroma subsampling               : 4:2:0
Bit depth                        : 8 bits
Scan type                        : Progressive
Compression mode                 : Lossy
Bits/(Pixel*Frame)               : 0.231
Stream size                      : 1 000 MiB (92%)
Writing library                  : XviD 64

Audio
ID                               : 1
Format                           : MPEG Audio
Format version                   : Version 1
Format profile                   : Layer 3
Mode                             : Joint stereo
Mode extension                   : MS Stereo
Codec ID                         : 55
Codec ID/Hint                    : MP3
Duration                         : 1h 33mn
Bit rate mode                    : Variable
Bit rate                         : 120 Kbps
Channel(s)                       : 2 channels
Sampling rate                    : 48.0 KHz
Compression mode                 : Lossy
Stream size                      : 80.0 MiB (7%)
Alignment                        : Aligned on interleaves
Interleave, duration             : 24 ms (0.60 video frame)


Release Notes:
Ok here we are again this time with out cam release 4 all
A Dangerous Method 2011
Video was from the 720p files from TNZ nice work guys 
Audio is from the guys @ EVOLUTiON again nice work guys
you gotter holla at us soon  
ok so over all for a cam the video is nice high contrast
which we lowered then we ran some filters, played with the 
rgb a bit and a few other little touches here and there 
after that muxed the audio bk to our encode and hey presto
here we are with a pretty decent movie for every 1 to watch

YES THE AUDIO IS ENGLISH for those wanting to know  

ENjoy  
[/code]
Screens:
[img]http://img52.imageshack.us/img52/4653/18637533.png[/img]
[img]http://img535.imageshack.us/img535/8655/84589564.png[/img]
[img]http://img213.imageshack.us/img213/5577/30215093.png[/img]
[img]http://img560.imageshack.us/img560/5801/22099958.png[/img]